<?xml version="1.0" encoding="UTF-8" standalone="no"?>
<!-- Created with Inkscape (http://www.inkscape.org/) -->

<svg
   xmlns:dc="http://purl.org/dc/elements/1.1/"
   xmlns:cc="http://creativecommons.org/ns#"
   xmlns:rdf="http://www.w3.org/1999/02/22-rdf-syntax-ns#"
   xmlns:svg="http://www.w3.org/2000/svg"
   xmlns="http://www.w3.org/2000/svg"
   xmlns:xlink="http://www.w3.org/1999/xlink"
   xmlns:sodipodi="http://sodipodi.sourceforge.net/DTD/sodipodi-0.dtd"
   xmlns:inkscape="http://www.inkscape.org/namespaces/inkscape"
   id="svg2"
   version="1.1"
   inkscape:version="0.91 r13725"
   width="136.66487mm"
   height="103.38953mm"
   viewBox="0 0 484.24557 366.3409"
   sodipodi:docname="Aegis Dynamics+.svg"
   inkscape:export-filename="C:\Users\Andrew\Desktop\SC Vectors\Aegis DynamicsSMB.png"
   inkscape:export-xdpi="120.85715"
   inkscape:export-ydpi="120.85715">
  <title
     id="title3346">Aegis Dynamics Logo</title>
  <metadata
     id="metadata8">
    <rdf:RDF>
      <cc:Work
         rdf:about="">
        <dc:format>image/svg+xml</dc:format>
        <dc:type
           rdf:resource="http://purl.org/dc/dcmitype/StillImage" />
        <dc:title>Aegis Dynamics Logo</dc:title>
        <dc:creator>
          <cc:Agent>
            <dc:title>Cloud Imperium Games</dc:title>
          </cc:Agent>
        </dc:creator>
        <dc:rights>
          <cc:Agent>
            <dc:title>CIG</dc:title>
          </cc:Agent>
        </dc:rights>
        <dc:source>CIG</dc:source>
        <dc:contributor>
          <cc:Agent>
            <dc:title>Vectorization by King Phoenix</dc:title>
          </cc:Agent>
        </dc:contributor>
      </cc:Work>
    </rdf:RDF>
  </metadata>
  <defs
     id="defs6">
    <linearGradient
       id="linearGradient4303"
       inkscape:collect="always">
      <stop
         id="stop4305"
         offset="0"
         style="stop-color:#727272;stop-opacity:1" />
      <stop
         id="stop4307"
         offset="1"
         style="stop-color:#4c4c4c;stop-opacity:1" />
    </linearGradient>
    <linearGradient
       inkscape:collect="always"
       id="linearGradient4194">
      <stop
         style="stop-color:#585858;stop-opacity:1"
         offset="0"
         id="stop4196" />
      <stop
         style="stop-color:#333333;stop-opacity:1"
         offset="1"
         id="stop4198" />
    </linearGradient>
    <linearGradient
       inkscape:collect="always"
       id="linearGradient4180">
      <stop
         style="stop-color:#b0b0b0;stop-opacity:1"
         offset="0"
         id="stop4182" />
      <stop
         style="stop-color:#5a5a5a;stop-opacity:1"
         offset="1"
         id="stop4184" />
    </linearGradient>
    <radialGradient
       inkscape:collect="always"
       xlink:href="#linearGradient4180"
       id="radialGradient4186"
       cx="243.52509"
       cy="148.6772"
       fx="243.52509"
       fy="148.6772"
       r="147.67709"
       gradientTransform="matrix(1.025887,0,2.4389217e-5,1.5253956,-6.3328892,-81.96606)"
       gradientUnits="userSpaceOnUse" />
    <radialGradient
       inkscape:collect="always"
       xlink:href="#linearGradient4194"
       id="radialGradient4200"
       cx="489.82593"
       cy="599.24939"
       fx="489.82593"
       fy="599.24939"
       r="470.02371"
       gradientTransform="matrix(1.0181283,3.6045575e-5,0,1.3279537,-8.9091777,-244.14649)"
       gradientUnits="userSpaceOnUse" />
    <linearGradient
       inkscape:collect="always"
       xlink:href="#linearGradient4210"
       id="linearGradient4216"
       x1="244.99998"
       y1="241.00002"
       x2="244.99998"
       y2="330.00003"
       gradientUnits="userSpaceOnUse"
       gradientTransform="translate(-2.9430286,-2.7167584)" />
    <linearGradient
       inkscape:collect="always"
       id="linearGradient4210">
      <stop
         style="stop-color:#6d6d6d;stop-opacity:1"
         offset="0"
         id="stop4212" />
      <stop
         style="stop-color:#404040;stop-opacity:1"
         offset="1"
         id="stop4214" />
    </linearGradient>
    <linearGradient
       inkscape:collect="always"
       xlink:href="#linearGradient4219"
       id="linearGradient4225"
       x1="245"
       y1="344.5"
       x2="245"
       y2="372"
       gradientUnits="userSpaceOnUse" />
    <linearGradient
       inkscape:collect="always"
       id="linearGradient4219">
      <stop
         style="stop-color:#787878;stop-opacity:1"
         offset="0"
         id="stop4221" />
      <stop
         style="stop-color:#414141;stop-opacity:1"
         offset="1"
         id="stop4223" />
    </linearGradient>
    <linearGradient
       inkscape:collect="always"
       xlink:href="#linearGradient4303"
       id="linearGradient4216-4"
       x1="244.99998"
       y1="241.00002"
       x2="244.99998"
       y2="330.00003"
       gradientUnits="userSpaceOnUse"
       gradientTransform="translate(-2.9430286,-2.7167584)" />
    <linearGradient
       inkscape:collect="always"
       xlink:href="#linearGradient4219"
       id="linearGradient4225-7"
       x1="245"
       y1="344.5"
       x2="245"
       y2="372"
       gradientUnits="userSpaceOnUse" />
  </defs>
  <sodipodi:namedview
     pagecolor="#ffffff"
     bordercolor="#666666"
     borderopacity="1"
     objecttolerance="10"
     gridtolerance="10"
     guidetolerance="10"
     inkscape:pageopacity="0"
     inkscape:pageshadow="2"
     inkscape:window-width="1920"
     inkscape:window-height="1058"
     id="namedview4"
     showgrid="false"
     inkscape:zoom="1.4142136"
     inkscape:cx="285.54904"
     inkscape:cy="158.52754"
     inkscape:window-x="1912"
     inkscape:window-y="-8"
     inkscape:window-maximized="1"
     inkscape:current-layer="svg2"
     units="mm"
     fit-margin-top="1"
     fit-margin-left="1"
     fit-margin-right="1"
     fit-margin-bottom="1"
     showguides="false" />
  <g
     transform="matrix(0.30195737,0,0,0.30195737,93.659671,-29.790458)"
     id="#afada9ff"
     style="fill:#000000">
    <path
       style="opacity:1;fill:url(#radialGradient4200);fill-opacity:1"
       d="m 409.83079,131.9185 -387.378032,615.39362 87.802192,86.5111 764.68294,-9.6e-4 87.56228,-86.51014 L 575.03282,131.9185 Z"
       id="path24-2-4"
       inkscape:connector-curvature="0"
       sodipodi:nodetypes="ccccccc" />
    <path
       style="opacity:1;fill:url(#radialGradient4186);fill-opacity:1;stroke:#353535;stroke-width:1.00000012;stroke-miterlimit:4;stroke-dasharray:none;stroke-opacity:1"
       d="M 218.59271,7.0854977 96.882114,200.4365 l 27.586636,27.18099 240.25631,-3e-4 L 392.23632,200.4365 270.49766,7.0854977 Z m 45.09022,12.4790003 112.71735,179.054002 -16.77137,16.561 -83.92969,-120.538875 -0.0273,59.498045 59.80273,61.04083 -75.20508,0 -0.30859,-148.027126 c 0.038,-19.912272 -30.79521,-19.624192 -30.79688,0 l -0.3164,148.027126 -75,0 59.31836,-61.04078 0.2539,-59.498045 L 129.5,215.1795 112.71036,198.6185 225.43478,19.564498 Z M 244.55664,144.10156 c 2.7041,0.007 6.60721,0.61548 8.17188,2.20703 l -0.0254,68.87091 c -5.42919,0.0302 -10.86182,0.015 -16.29101,0 l -0.0273,-68.87082 c 1.46396,-1.53002 5.20808,-2.18923 8.17187,-2.20703 z"
       id="path24-2"
       inkscape:connector-curvature="0"
       sodipodi:nodetypes="ccccccccccccccccccccccccccccccc"
       transform="matrix(3.3117258,0,0,3.3117258,-319.92046,88.582928)" />
  </g>
  <g
     transform="matrix(1.0302311,0,0,0.97065604,-4.6568286,-10.022258)"
     style="font-style:normal;font-variant:normal;font-weight:bold;font-stretch:semi-expanded;font-size:24.52732658px;line-height:125%;font-family:'Terminator Cyr';-inkscape-font-specification:'Terminator Cyr Bold Semi-Expanded';letter-spacing:37.04999924px;word-spacing:0px;fill:#000000;fill-opacity:1;stroke:none;stroke-width:1px;stroke-linecap:butt;stroke-linejoin:miter;stroke-opacity:1"
     id="text3338">
    <path
       style="fill:url(#linearGradient4225);fill-opacity:1;stroke:#353535;stroke-width:1.20000005;stroke-miterlimit:4;stroke-dasharray:none;stroke-opacity:1"
       d="m 145.05469,346.58203 c -0.60645,0 -1.18822,0.11935 -1.74414,0.35742 -0.55592,0.22221 -1.05225,0.52338 -1.49024,0.9043 -0.43799,0.38092 -0.79101,0.82414 -1.06054,1.33203 -0.25269,0.5079 -0.37891,1.04776 -0.37891,1.61914 l 0,13.68946 4.72461,0 0,-13.14063 12.71094,11.68945 c 0.40429,0.30157 0.76586,0.56296 1.08593,0.78516 0.33692,0.20633 0.65772,0.38059 0.96094,0.52344 0.30323,0.14284 0.60497,0.24706 0.9082,0.31054 0.30323,0.0635 0.63257,0.0937 0.98633,0.0937 0.74122,0 1.39795,-0.12691 1.97071,-0.38086 0.57276,-0.26982 1.05395,-0.6259 1.4414,-1.07031 0.40431,-0.44441 0.70606,-0.96914 0.9082,-1.57226 0.219,-0.60313 0.32813,-1.23769 0.32813,-1.9043 l 0,-12.83203 -4.75,0 0,13.09375 -12.70898,-11.78516 c -1.2466,-1.14276 -2.54491,-1.71289 -3.89258,-1.71289 z m -137.9687525,0.33203 0,17.57032 19.8867185,0 c 0.842294,0 1.650871,-0.13449 2.425782,-0.4043 0.77491,-0.26982 1.457269,-0.65056 2.046874,-1.14258 0.589606,-0.49203 1.062253,-1.07167 1.416016,-1.73828 0.353764,-0.68248 0.529297,-1.42882 0.529297,-2.23828 l 0,-6.52344 c 0,-0.82534 -0.175533,-1.56972 -0.529297,-2.23633 -0.336918,-0.68249 -0.80102,-1.26213 -1.390625,-1.73828 -0.57276,-0.49202 -1.246574,-0.87275 -2.021484,-1.14258 -0.758065,-0.26981 -1.558097,-0.40625 -2.400391,-0.40625 l -19.9628905,0 z m 66.9921875,0 10.613281,12.38086 0,5.18946 4.675782,0 0,-5.18946 10.333984,-12.38086 -5.886719,0 -6.898437,8.02344 -6.847657,-8.02344 -5.990234,0 z m 145.681645,0 c -0.69068,0 -1.29615,0.10422 -1.81836,0.31055 -0.50538,0.19046 -0.96093,0.4765 -1.36524,0.85742 -0.4043,0.38093 -0.78296,0.84122 -1.13672,1.38086 -0.33692,0.53964 -0.68994,1.14198 -1.06054,1.80859 l -7.25391,13.2129 5.33203,0 2.57813,-4.59376 9.24804,0 2.80469,4.59376 5.1543,0 -7.25196,-13.09376 c -0.38745,-0.69835 -0.74902,-1.32534 -1.08593,-1.88085 -0.33692,-0.55551 -0.69848,-1.02338 -1.08594,-1.4043 -0.38746,-0.38092 -0.82593,-0.67453 -1.31445,-0.88086 -0.48853,-0.20633 -1.0703,-0.31055 -1.74414,-0.31055 z m 121.49804,0 0,17.71289 5.23047,0 0,-17.71289 -5.23047,0 z m -63.77539,0.0254 c -0.64014,0 -1.23901,0.1174 -1.79492,0.35547 -0.55591,0.22221 -1.03515,0.5329 -1.43945,0.92969 -0.4043,0.38092 -0.72509,0.84122 -0.96094,1.38086 -0.23584,0.52377 -0.35352,1.08633 -0.35352,1.68945 l 0,13.18946 4.52344,0.11914 0,-12.85547 4.39649,9.02343 c 0.25268,0.52377 0.5393,1.03898 0.85937,1.54688 0.32007,0.49202 0.6731,0.92767 1.06055,1.30859 0.4043,0.38093 0.85131,0.69162 1.33984,0.92969 0.50538,0.23808 1.06151,0.35742 1.66797,0.35742 0.65699,0 1.22167,-0.10422 1.69336,-0.31054 0.47168,-0.19047 0.88451,-0.46698 1.23828,-0.83204 0.37061,-0.36505 0.698,-0.79509 0.98438,-1.2871 0.28638,-0.5079 0.58154,-1.07046 0.88476,-1.68946 l 4.47266,-9.21289 0,12.90235 4.52343,0 0,-12.66602 c 0,-0.63487 -0.10912,-1.24478 -0.32812,-1.83203 -0.21899,-0.58726 -0.53124,-1.10247 -0.93555,-1.54688 -0.4043,-0.46028 -0.89208,-0.82588 -1.46484,-1.0957 -0.57275,-0.26982 -1.21435,-0.4043 -1.92188,-0.4043 -1.11183,0 -2.05517,0.27652 -2.83007,0.83203 -0.77492,0.55552 -1.36328,1.36629 -1.76758,2.42969 l -4.625,10.3086 -4.2207,-9.78516 c -0.219,-0.52377 -0.48853,-1.01628 -0.8086,-1.47656 -0.32007,-0.46028 -0.69018,-0.85811 -1.11133,-1.19141 -0.42114,-0.34918 -0.89184,-0.61813 -1.41406,-0.80859 -0.50538,-0.20634 -1.06152,-0.3086 -1.66797,-0.3086 z m 116.76953,0 c -2.25734,0 -4.00072,0.53035 -5.23047,1.59375 -1.22975,1.04754 -1.84375,2.67469 -1.84375,4.88086 l 0,5.9043 c 0,0.76184 0.17553,1.46083 0.5293,2.0957 0.35376,0.619 0.81787,1.15886 1.39063,1.61914 0.57276,0.46028 1.22094,0.81637 1.94531,1.07032 0.74122,0.25394 1.49852,0.38086 2.27344,0.38086 l 20.41797,0 0,-4.38086 -21.70508,0 0,-8.75977 21.70508,0 0,-4.4043 -19.48243,0 z m 67.16407,0.11914 c -0.85914,0 -1.71044,0.12691 -2.55274,0.38086 -0.82545,0.23808 -1.56567,0.59416 -2.22266,1.07032 -0.65699,0.46027 -1.19604,1.03236 -1.61718,1.71484 -0.40431,0.66661 -0.60742,1.42808 -0.60742,2.28516 0,0.79358 0.17748,1.53235 0.53125,2.21484 0.35376,0.66661 0.82445,1.24431 1.41406,1.73633 0.5896,0.47615 1.26342,0.84932 2.02148,1.11914 0.77491,0.26981 1.57494,0.40625 2.40039,0.40625 l 17.43555,0 0,2.09375 -22.61523,0 0,4.4043 21.15039,0 c 0.8086,0 1.59154,-0.13449 2.34961,-0.4043 0.75806,-0.26982 1.42333,-0.64299 1.99609,-1.11914 0.58961,-0.47615 1.06225,-1.03871 1.41601,-1.68946 0.35377,-0.6666 0.5293,-1.39781 0.5293,-2.1914 0,-0.76184 -0.16699,-1.48353 -0.5039,-2.16602 -0.32008,-0.68248 -0.76709,-1.26969 -1.33985,-1.76172 -0.55591,-0.50789 -1.22118,-0.90571 -1.99609,-1.1914 -0.77491,-0.30156 -1.60912,-0.45117 -2.50196,-0.45117 l -17.18359,0 0,-2.14258 22.26172,0 0,-4.3086 -20.36523,0 z m -449.527348,4.28516 16.625,0 0,8.80859 -16.625,0 0,-8.80859 z m 207.794918,0.30859 2.19922,3.73828 -4.42187,0 2.22265,-3.73828 z"
       transform="matrix(0.97065612,0,0,1.0302311,1.663852,7.5266243)"
       id="path3390"
       inkscape:connector-curvature="0" />
  </g>
  <path
     id="path72"
     style="opacity:1;fill:url(#linearGradient4216);fill-opacity:1;stroke:#353535;stroke-width:1.60000014;stroke-miterlimit:4;stroke-dasharray:none;stroke-opacity:1"
     d="m 463.23107,241.37574 -13.6843,18.0808 -58.2992,0 0,13.5224 69.5967,-0.012 0,42.1085 -6.4357,7.1503 -84.5964,0 0.01,-17.5775 69.5055,-0.1 0,-14.2604 -69.1249,-0.1719 -0.085,-42.096 5.909,-6.6438 z m -129.3593,3e-4 21.7764,0 0,80.8497 -21.7764,0 z m -208.709,-0.2628 90.9712,0.1065 0,17.6651 -69.6759,0 0,14.0755 69.6759,0 0,17.4337 -69.6759,0 0,14.1479 69.6759,0 0,18.0465 -90.9713,0 0,-81.3687 z m 195.7167,6.9066 0,11.2306 -69.7976,0 0,45.2882 48.2344,0 0,-14.1133 -34.4802,0 0.1827,-17.5588 55.8607,0 0,42.2088 -6.9776,6.8722 -77.506,0 -6.8254,-6.2908 0,-67.6369 6.8254,-6.7626 77.506,0 z m -208.6484,3.3797 0,71.1888 -21.809799,0 0,-44.1502 -15.6967,15.0607 -32.2184,0 0,29.0895 -21.4899,0 0,-71.1888 9.4221,-10.1798 72.348999,0 z m -65.188599,7.6621 -4.5363,4.5723 0,12.3195 47.9151,0.069 0,-12.3887 -3.9635,-4.5723 z"
     inkscape:connector-curvature="0"
     sodipodi:nodetypes="cccccccccccccccccccccccccccccccccccccccccccccccccccccccccccccccccccccc" />
  <g
     transform="matrix(1.0302311,0,0,0.97065604,-4.6568286,-10.022258)"
     style="font-style:normal;font-variant:normal;font-weight:bold;font-stretch:semi-expanded;font-size:24.52732658px;line-height:125%;font-family:'Terminator Cyr';-inkscape-font-specification:'Terminator Cyr Bold Semi-Expanded';letter-spacing:37.04999924px;word-spacing:0px;fill:#000000;fill-opacity:1;stroke:none;stroke-width:1px;stroke-linecap:butt;stroke-linejoin:miter;stroke-opacity:1"
     id="text3338-9">
    <path
       style="fill:url(#linearGradient4225-7);fill-opacity:1;stroke:none;stroke-width:1.39999998;stroke-miterlimit:4;stroke-dasharray:none;stroke-opacity:1"
       d="m 145.05469,346.58203 c -0.60645,0 -1.18822,0.11935 -1.74414,0.35742 -0.55592,0.22221 -1.05225,0.52338 -1.49024,0.9043 -0.43799,0.38092 -0.79101,0.82414 -1.06054,1.33203 -0.25269,0.5079 -0.37891,1.04776 -0.37891,1.61914 l 0,13.68946 4.72461,0 0,-13.14063 12.71094,11.68945 c 0.40429,0.30157 0.76586,0.56296 1.08593,0.78516 0.33692,0.20633 0.65772,0.38059 0.96094,0.52344 0.30323,0.14284 0.60497,0.24706 0.9082,0.31054 0.30323,0.0635 0.63257,0.0937 0.98633,0.0937 0.74122,0 1.39795,-0.12691 1.97071,-0.38086 0.57276,-0.26982 1.05395,-0.6259 1.4414,-1.07031 0.40431,-0.44441 0.70606,-0.96914 0.9082,-1.57226 0.219,-0.60313 0.32813,-1.23769 0.32813,-1.9043 l 0,-12.83203 -4.75,0 0,13.09375 -12.70898,-11.78516 c -1.2466,-1.14276 -2.54491,-1.71289 -3.89258,-1.71289 z m -137.9687525,0.33203 0,17.57032 19.8867185,0 c 0.842294,0 1.650871,-0.13449 2.425782,-0.4043 0.77491,-0.26982 1.457269,-0.65056 2.046874,-1.14258 0.589606,-0.49203 1.062253,-1.07167 1.416016,-1.73828 0.353764,-0.68248 0.529297,-1.42882 0.529297,-2.23828 l 0,-6.52344 c 0,-0.82534 -0.175533,-1.56972 -0.529297,-2.23633 -0.336918,-0.68249 -0.80102,-1.26213 -1.390625,-1.73828 -0.57276,-0.49202 -1.246574,-0.87275 -2.021484,-1.14258 -0.758065,-0.26981 -1.558097,-0.40625 -2.400391,-0.40625 l -19.9628905,0 z m 66.9921875,0 10.613281,12.38086 0,5.18946 4.675782,0 0,-5.18946 10.333984,-12.38086 -5.886719,0 -6.898437,8.02344 -6.847657,-8.02344 -5.990234,0 z m 145.681645,0 c -0.69068,0 -1.29615,0.10422 -1.81836,0.31055 -0.50538,0.19046 -0.96093,0.4765 -1.36524,0.85742 -0.4043,0.38093 -0.78296,0.84122 -1.13672,1.38086 -0.33692,0.53964 -0.68994,1.14198 -1.06054,1.80859 l -7.25391,13.2129 5.33203,0 2.57813,-4.59376 9.24804,0 2.80469,4.59376 5.1543,0 -7.25196,-13.09376 c -0.38745,-0.69835 -0.74902,-1.32534 -1.08593,-1.88085 -0.33692,-0.55551 -0.69848,-1.02338 -1.08594,-1.4043 -0.38746,-0.38092 -0.82593,-0.67453 -1.31445,-0.88086 -0.48853,-0.20633 -1.0703,-0.31055 -1.74414,-0.31055 z m 121.49804,0 0,17.71289 5.23047,0 0,-17.71289 -5.23047,0 z m -63.77539,0.0254 c -0.64014,0 -1.23901,0.1174 -1.79492,0.35547 -0.55591,0.22221 -1.03515,0.5329 -1.43945,0.92969 -0.4043,0.38092 -0.72509,0.84122 -0.96094,1.38086 -0.23584,0.52377 -0.35352,1.08633 -0.35352,1.68945 l 0,13.18946 4.52344,0.11914 0,-12.85547 4.39649,9.02343 c 0.25268,0.52377 0.5393,1.03898 0.85937,1.54688 0.32007,0.49202 0.6731,0.92767 1.06055,1.30859 0.4043,0.38093 0.85131,0.69162 1.33984,0.92969 0.50538,0.23808 1.06151,0.35742 1.66797,0.35742 0.65699,0 1.22167,-0.10422 1.69336,-0.31054 0.47168,-0.19047 0.88451,-0.46698 1.23828,-0.83204 0.37061,-0.36505 0.698,-0.79509 0.98438,-1.2871 0.28638,-0.5079 0.58154,-1.07046 0.88476,-1.68946 l 4.47266,-9.21289 0,12.90235 4.52343,0 0,-12.66602 c 0,-0.63487 -0.10912,-1.24478 -0.32812,-1.83203 -0.21899,-0.58726 -0.53124,-1.10247 -0.93555,-1.54688 -0.4043,-0.46028 -0.89208,-0.82588 -1.46484,-1.0957 -0.57275,-0.26982 -1.21435,-0.4043 -1.92188,-0.4043 -1.11183,0 -2.05517,0.27652 -2.83007,0.83203 -0.77492,0.55552 -1.36328,1.36629 -1.76758,2.42969 l -4.625,10.3086 -4.2207,-9.78516 c -0.219,-0.52377 -0.48853,-1.01628 -0.8086,-1.47656 -0.32007,-0.46028 -0.69018,-0.85811 -1.11133,-1.19141 -0.42114,-0.34918 -0.89184,-0.61813 -1.41406,-0.80859 -0.50538,-0.20634 -1.06152,-0.3086 -1.66797,-0.3086 z m 116.76953,0 c -2.25734,0 -4.00072,0.53035 -5.23047,1.59375 -1.22975,1.04754 -1.84375,2.67469 -1.84375,4.88086 l 0,5.9043 c 0,0.76184 0.17553,1.46083 0.5293,2.0957 0.35376,0.619 0.81787,1.15886 1.39063,1.61914 0.57276,0.46028 1.22094,0.81637 1.94531,1.07032 0.74122,0.25394 1.49852,0.38086 2.27344,0.38086 l 20.41797,0 0,-4.38086 -21.70508,0 0,-8.75977 21.70508,0 0,-4.4043 -19.48243,0 z m 67.16407,0.11914 c -0.85914,0 -1.71044,0.12691 -2.55274,0.38086 -0.82545,0.23808 -1.56567,0.59416 -2.22266,1.07032 -0.65699,0.46027 -1.19604,1.03236 -1.61718,1.71484 -0.40431,0.66661 -0.60742,1.42808 -0.60742,2.28516 0,0.79358 0.17748,1.53235 0.53125,2.21484 0.35376,0.66661 0.82445,1.24431 1.41406,1.73633 0.5896,0.47615 1.26342,0.84932 2.02148,1.11914 0.77491,0.26981 1.57494,0.40625 2.40039,0.40625 l 17.43555,0 0,2.09375 -22.61523,0 0,4.4043 21.15039,0 c 0.8086,0 1.59154,-0.13449 2.34961,-0.4043 0.75806,-0.26982 1.42333,-0.64299 1.99609,-1.11914 0.58961,-0.47615 1.06225,-1.03871 1.41601,-1.68946 0.35377,-0.6666 0.5293,-1.39781 0.5293,-2.1914 0,-0.76184 -0.16699,-1.48353 -0.5039,-2.16602 -0.32008,-0.68248 -0.76709,-1.26969 -1.33985,-1.76172 -0.55591,-0.50789 -1.22118,-0.90571 -1.99609,-1.1914 -0.77491,-0.30156 -1.60912,-0.45117 -2.50196,-0.45117 l -17.18359,0 0,-2.14258 22.26172,0 0,-4.3086 -20.36523,0 z m -449.527348,4.28516 16.625,0 0,8.80859 -16.625,0 0,-8.80859 z m 207.794918,0.30859 2.19922,3.73828 -4.42187,0 2.22265,-3.73828 z"
       transform="matrix(0.97065612,0,0,1.0302311,1.663852,7.5266243)"
       id="path3390-3"
       inkscape:connector-curvature="0" />
  </g>
  <path
     id="path72-4"
     style="opacity:1;fill:url(#linearGradient4216-4);fill-opacity:1;stroke:none;stroke-width:1.4000001;stroke-miterlimit:4;stroke-dasharray:none;stroke-opacity:1"
     d="m 463.23107,241.37574 -13.6843,18.0808 -58.2992,0 0,13.5224 69.5967,-0.012 0,42.1085 -6.4357,7.1503 -84.5964,0 0.01,-17.5775 69.5055,-0.1 0,-14.2604 -69.1249,-0.1719 -0.085,-42.096 5.909,-6.6438 z m -129.3593,3e-4 21.7764,0 0,80.8497 -21.7764,0 z m -208.709,-0.2628 90.9712,0.1065 0,17.6651 -69.6759,0 0,14.0755 69.6759,0 0,17.4337 -69.6759,0 0,14.1479 69.6759,0 0,18.0465 -90.9713,0 0,-81.3687 z m 195.7167,6.9066 0,11.2306 -69.7976,0 0,45.2882 48.2344,0 0,-14.1133 -34.4802,0 0.1827,-17.5588 55.8607,0 0,42.2088 -6.9776,6.8722 -77.506,0 -6.8254,-6.2908 0,-67.6369 6.8254,-6.7626 77.506,0 z m -208.6484,3.3797 0,71.1888 -21.809799,0 0,-44.1502 -15.6967,15.0607 -32.2184,0 0,29.0895 -21.4899,0 0,-71.1888 9.4221,-10.1798 72.348999,0 z m -65.188599,7.6621 -4.5363,4.5723 0,12.3195 47.9151,0.069 0,-12.3887 -3.9635,-4.5723 z"
     inkscape:connector-curvature="0"
     sodipodi:nodetypes="cccccccccccccccccccccccccccccccccccccccccccccccccccccccccccccccccccccc" />
</svg>
