<?xml version="1.0" encoding="UTF-8" standalone="no"?>
<svg
   xmlns:dc="http://purl.org/dc/elements/1.1/"
   xmlns:cc="http://creativecommons.org/ns#"
   xmlns:svg="http://www.w3.org/2000/svg"
   xmlns="http://www.w3.org/2000/svg"
   version="1.1"
   id="svg4606"
   viewBox="0 0 2000 734"
   height="734"
   width="2000">
  <title
     id="title5172">Official logo of Orbital ATK</title>
  <g
     transform="translate(0,-318.36218)"
     id="layer1">
    <g
       style="fill:#0056b9;fill-opacity:1"
       transform="matrix(15.252721,0,0,-15.252721,-6584.6747,1483.2941)"
       id="g448">
      <g
         style="fill:#0056b9;fill-opacity:1"
         id="g450">
        <g
           style="fill:#0056b9;fill-opacity:1"
           transform="translate(545.20399,41.080994)"
           id="g456">
          <path
             id="path458"
             style="fill:#0056b9;fill-opacity:1;fill-rule:nonzero;stroke:none"
             d="m 0,0 c 0.02,0.005 0.055,0.01 0.105,0.01 0.12,0 0.175,-0.05 0.175,-0.125 0,-0.084 -0.085,-0.119 -0.19,-0.119 L 0,-0.234 0,0 Z m -0.005,-0.368 0.09,0 c 0.105,0 0.155,-0.041 0.17,-0.13 0.025,-0.095 0.04,-0.17 0.064,-0.199 l 0.205,0 c -0.02,0.029 -0.035,0.079 -0.06,0.204 -0.024,0.109 -0.07,0.169 -0.15,0.199 l 0,0.01 c 0.1,0.03 0.17,0.1 0.17,0.189 0,0.08 -0.035,0.145 -0.08,0.18 -0.059,0.035 -0.13,0.06 -0.284,0.06 -0.135,0 -0.24,-0.01 -0.315,-0.025 l 0,-0.817 0.19,0 0,0.329 z m 0.13,0.752 c 0.364,0 0.629,-0.294 0.629,-0.658 0,-0.358 -0.265,-0.648 -0.624,-0.648 -0.37,0 -0.639,0.29 -0.639,0.653 0,0.359 0.269,0.653 0.634,0.653 z m 0,0.164 c -0.47,0 -0.844,-0.363 -0.844,-0.817 0,-0.464 0.374,-0.827 0.844,-0.827 0.474,0 0.838,0.363 0.838,0.827 0,0.454 -0.364,0.817 -0.838,0.817 z m 12.35,12.91 c 0,2.562 -1.669,4.96 -4.775,6.813 C 6.378,16.317 1.405,6.365 -0.503,3.196 7.522,5.739 12.475,9.263 12.475,13.458 Z M -2.824,1.666 C -2.835,1.664 -2.845,1.662 -2.856,1.661 -5.71,1.046 -8.587,0.564 -11.266,0.202 c -0.064,-0.307 -0.275,-1.146 -0.952,-3.431 -0.748,-2.972 -0.789,-4.955 0.047,-5.38 1.471,-0.746 5.237,3.534 9.347,10.275 z m 3.803,22.07 c 3.23,-0.72 5.239,-1.421 6.019,-1.665 1.708,4.823 2.248,8.102 0.998,8.061 C 6.815,30.092 5.053,28.538 3.213,26.463 2.412,25.5 1.595,24.502 0.979,23.736 Z M 16.79,13.256 C 16.79,8.114 9.201,4.578 -1.188,2.016 -6.462,-6.946 -11.514,-12.8 -13.46,-11.813 c -1.145,0.581 -1.383,3.482 1.486,11.922 -2.297,-0.296 -4.431,-0.501 -6.253,-0.621 4.839,0.563 10.684,1.583 15.972,3.125 2.635,4.397 5.477,9.944 8.837,18.315 -1.793,0.957 -3.842,1.749 -5.931,2.397 -4.584,-6.268 -5.16,-7.143 -0.859,0.259 -1.989,0.578 -3.982,1.032 -5.788,1.383 1.588,-0.212 3.705,-0.54 6.01,-1.022 2.839,4.553 7.886,11.381 9.972,10.335 1.561,-0.782 0.743,-5.776 -1.769,-12.63 5.265,-2.182 8.573,-4.794 8.573,-8.394 z m -88.162,-8.504 4.01,0 1.93,7.508 1.834,0 0.464,1.829 -1.87,0 0.511,2.072 -3.886,-0.003 -0.574,-2.069 -1.872,0 -0.462,-1.829 1.872,0 c -0.237,-0.907 -1.155,-4.415 -1.957,-7.508 m -30.674,9.656 c 0.038,0.133 0.056,0.266 0.056,0.36 0,0.36 -0.284,0.532 -0.931,0.532 l -1.766,0 c -0.93,0 -1.14,-0.172 -1.406,-1.216 l -1.574,-6.107 -0.078,-0.304 c -0.037,-0.151 -0.057,-0.227 -0.057,-0.283 0,-0.419 0.286,-0.55 1.082,-0.55 l 1.844,0 c 0.513,0 0.644,0.019 0.779,0.151 0.151,0.152 0.171,0.208 0.36,0.948 l 1.594,6.128 c 0.02,0.094 0.059,0.189 0.097,0.341 m 4.862,0.437 c 0,-0.324 -0.056,-0.684 -0.172,-1.121 l -1.615,-6.239 c -0.283,-1.062 -0.549,-1.556 -1.137,-2.012 -0.647,-0.53 -1.444,-0.721 -2.813,-0.721 l -6.477,0 c -1.691,0 -2.145,0.133 -2.734,0.894 -0.361,0.435 -0.532,0.947 -0.532,1.553 0,0.267 0.037,0.512 0.095,0.721 l 0.133,0.494 1.613,6.203 c 0.306,1.193 0.724,1.84 1.444,2.239 0.704,0.378 1.502,0.531 2.698,0.531 l 6.153,0 c 1.54,0 2.186,-0.209 2.774,-0.93 0.362,-0.457 0.57,-1.025 0.57,-1.612 m 8.873,-0.764 -1.379,0 c -1.386,0 -1.937,-0.342 -2.583,-1.594 l 0.481,1.594 -4.223,0 -2.393,-9.294 4.56,0 1.519,5.917 c 0.171,0.626 0.455,0.893 1.271,0.893 l 2.114,0.007 0.633,2.477 z m 6.796,-2.771 c 0.056,0.229 0.075,0.285 0.075,0.343 0,0.435 -0.284,0.625 -0.93,0.625 l -1.082,0 c -0.704,0 -0.855,-0.151 -1.065,-0.929 l -0.969,-3.757 c 0,0 -0.019,-0.074 -0.057,-0.208 -0.019,-0.113 -0.038,-0.209 -0.038,-0.265 0,-0.361 0.285,-0.532 0.857,-0.532 l 0.986,0 c 0.892,0 1.045,0.115 1.33,1.216 l 0.837,3.28 0.056,0.227 m 3.838,0.437 c 0,-0.341 -0.075,-0.91 -0.152,-1.232 l -0.873,-3.32 c -0.437,-1.708 -1.311,-2.408 -2.945,-2.408 l -8.238,0 3.294,12.631 3.651,0 -0.987,-3.83 c 0.359,0.417 0.55,0.493 1.348,0.493 l 1.998,0 c 1.138,0 1.728,-0.228 2.316,-0.872 0.398,-0.419 0.588,-0.892 0.588,-1.462 m 4.746,3.126 c 1.097,0 1.985,0.878 1.985,1.962 0,1.085 -0.888,1.965 -1.985,1.965 -1.097,0 -1.986,-0.88 -1.986,-1.965 0,-1.084 0.889,-1.962 1.986,-1.962 m -5.264,-10.086 4.307,0 2.404,9.294 -4.308,0 -2.403,-9.294 z m 20.792,4.438 -2.185,0 c -0.778,0 -0.893,-0.095 -1.064,-0.759 l -0.247,-0.948 c -0.076,-0.267 -0.076,-0.305 -0.076,-0.38 0,-0.436 0.208,-0.551 0.893,-0.551 l 1.12,0 c 0.817,0 0.873,0.04 1.045,0.664 l 0.514,1.974 z m 1.711,4.856 c 1.481,0 2.488,-0.948 2.488,-2.353 0,-0.284 -0.076,-0.796 -0.19,-1.254 l -1.48,-5.687 -7.072,0 c -1.731,0 -2.83,0.872 -2.83,2.257 0,0.246 0.037,0.549 0.132,0.872 l 0.228,0.89 c 0.249,0.95 0.569,1.48 1.141,1.823 0.474,0.303 0.835,0.36 1.898,0.36 l 3.991,0 c 0.323,0 0.57,0.341 0.57,0.777 0,0.38 -0.228,0.487 -0.987,0.487 l -5.159,-10e-4 0,10e-4 0.491,1.828 6.779,0 m 51.341,3.303 -2.957,0 C -7.31,17.383 -7.31,17.383 -7.311,17.383 l 0.001,0 -5.426,-5.151 1.338,5.152 -4.505,0 -3.26,-12.6 4.509,0 1.008,3.905 1.187,1.107 1.564,-5.012 4.662,0 -2.604,8.344 4.486,4.256 z m -30.225,-6.392 -0.666,3.589 -2.371,-3.589 3.037,0 z m 5.636,-6.205 -4.492,0 -0.628,3.41 -5.4,0 -2.254,-3.41 -2.763,0 8.327,12.596 4.885,0 2.325,-12.596 z m 12.214,12.596 -11.857,0 -0.655,-2.534 3.656,0 -2.603,-10.067 4.545,0 2.601,10.067 3.659,0 0.654,2.534 z m -29.061,0.035 -3.266,-12.631 -4.558,0 3.266,12.631 4.558,0" />
        </g>
      </g>
    </g>
  </g>
</svg>
