<?xml version="1.0" encoding="UTF-8" standalone="no"?>
<svg
    xmlns:dc="http://purl.org/dc/elements/1.1/"
    xmlns:cc="http://creativecommons.org/ns#"
    xmlns:svg="http://www.w3.org/2000/svg"
    xmlns="http://www.w3.org/2000/svg"
    version="1.1"
    viewBox="0 0 249 48">
    <title>Sierra Nevada Corporation | SNC | Logo</title>
    <path
        fill="#003478"
        d="M20.882,29.795c0-0.839-0.681-1.52-1.521-1.52h-0.75h-8.3c-5.485,0-9.932-4.448-9.932-9.933v-8.41
    	C0.379,4.447,4.826,0,10.311,0h18.85c5.485,0,9.932,4.447,9.932,9.932v4.931h-17.18l-0.004-1.321c0-0.851-0.69-1.542-1.542-1.542
    	c-0.851,0-1.541,0.691-1.541,1.542c0,0,0,2.181,0,3.15c0,0.865,0.541,1.297,1.495,1.297c0.999,0,8.965-0.011,8.965-0.011
    	c5.485,0,9.811,4.447,9.811,9.932l-0.004,9.941c0,5.486-4.446,9.933-9.932,9.933l-18.888,0.012c-5.485,0-9.932-4.447-9.932-9.932
    	v-6.778h17.468l-0.002,2.619c0,0.85,0.69,1.542,1.541,1.542c0.852,0,1.542-0.692,1.542-1.542v-3.063L20.882,29.795z"/>
    <path
        fill="#003478"
        d="M63.312,14.263c0-0.851-0.69-1.542-1.542-1.542s-1.541,0.691-1.541,1.542v33.638H43.752V0.06h16.464v5.369l4.271-5.41
    	L71.757,0c5.486,0,9.932,4.447,9.932,9.932v4.931v33.038h-18.4L63.312,14.263z"/>
    <path
        fill="#003478"
        d="M125.354,37.852c0,5.486-4.447,9.933-9.932,9.933l-18.888,0.012c-5.485,0-9.932-4.447-9.932-9.933l0.039-27.932
    	C86.641,4.447,91.087,0,96.573,0h18.85c5.485,0,9.932,4.447,9.932,9.932v11.493h-17.179l-0.005-7.162
    	c0-0.851-0.69-1.542-1.541-1.542c-0.852,0-1.542,0.691-1.542,1.542v3.633v12.05v3.634c0,0.85,0.691,1.541,1.542,1.541
    	s1.541-0.691,1.541-1.541l0.005-8.355h17.179v12.684L125.354,37.852L125.354,37.852z"/>
    <path d="M133.485,8.763l2.907-0.182c0.064,0.472,0.193,0.831,0.388,1.078c0.315,0.4,0.768,0.599,1.354,0.599
    	c0.44,0,0.777-0.102,1.015-0.308c0.236-0.206,0.354-0.443,0.354-0.714c0-0.257-0.112-0.487-0.337-0.69
    	c-0.224-0.203-0.746-0.395-1.563-0.576c-1.344-0.302-2.3-0.703-2.871-1.203c-0.578-0.5-0.864-1.136-0.864-1.911
    	c0-0.508,0.147-0.989,0.442-1.441c0.296-0.452,0.739-0.808,1.332-1.067c0.594-0.258,1.406-0.389,2.439-0.389
    	c1.267,0,2.232,0.235,2.896,0.704c0.666,0.469,1.062,1.214,1.188,2.237l-2.886,0.169c-0.076-0.445-0.239-0.769-0.487-0.971
    	c-0.247-0.203-0.588-0.304-1.024-0.304c-0.358,0-0.629,0.075-0.81,0.227c-0.184,0.151-0.272,0.335-0.272,0.552
    	c0,0.158,0.075,0.3,0.229,0.426c0.147,0.132,0.49,0.253,1.032,0.366c1.336,0.289,2.294,0.581,2.872,0.876
    	c0.579,0.295,0.999,0.662,1.265,1.1c0.263,0.438,0.394,0.927,0.394,1.468c0,0.636-0.176,1.223-0.526,1.759
    	c-0.353,0.537-0.843,0.943-1.475,1.221c-0.631,0.278-1.425,0.416-2.386,0.416c-1.687,0-2.854-0.324-3.503-0.972
    	S133.572,9.762,133.485,8.763z"/>
    <path d="M144.814,2.139h3.063v9.887h-3.063V2.139z"/>
    <path d="M150.739,2.139h8.188v2.103h-5.122V5.83h4.764v2.014h-4.764v1.945h5.278v2.237h-8.344V2.139z"/>
    <path d="M164.506,4.13h1.347c0.561,0,0.94,0.085,1.145,0.257c0.203,0.171,0.304,0.417,0.304,0.736c0,0.216-0.064,0.408-0.192,0.574
    	c-0.129,0.167-0.294,0.271-0.499,0.312c-0.401,0.09-0.672,0.135-0.81,0.135h-1.294L164.506,4.13L164.506,4.13z M164.506,12.026
    	V7.999h0.271c0.28,0,0.531,0.077,0.751,0.23c0.162,0.118,0.349,0.373,0.558,0.765l1.64,3.032h3.445l-1.498-2.863
    	c-0.072-0.145-0.214-0.352-0.426-0.62c-0.213-0.268-0.374-0.443-0.487-0.524c-0.164-0.123-0.429-0.246-0.791-0.368
    	c0.456-0.104,0.814-0.234,1.077-0.391c0.411-0.246,0.732-0.568,0.968-0.965c0.234-0.397,0.353-0.87,0.353-1.417
    	c0-0.628-0.153-1.161-0.459-1.598c-0.307-0.438-0.709-0.737-1.208-0.898c-0.498-0.162-1.221-0.243-2.165-0.243h-5.093v9.887H164.506
    	z"/>
    <path d="M175.931,4.13h1.346c0.561,0,0.942,0.085,1.145,0.257c0.203,0.171,0.305,0.417,0.305,0.736c0,0.216-0.064,0.408-0.193,0.574
    	c-0.129,0.166-0.294,0.271-0.496,0.312c-0.403,0.09-0.674,0.135-0.813,0.135h-1.293L175.931,4.13L175.931,4.13z M175.931,12.026
    	V7.999h0.271c0.28,0,0.531,0.077,0.752,0.23c0.163,0.118,0.349,0.373,0.557,0.765l1.642,3.032h3.443l-1.497-2.863
    	c-0.072-0.145-0.215-0.352-0.427-0.62c-0.213-0.268-0.374-0.443-0.485-0.524c-0.165-0.123-0.431-0.246-0.79-0.368
    	c0.453-0.104,0.813-0.234,1.074-0.391c0.411-0.246,0.734-0.568,0.969-0.965c0.235-0.397,0.352-0.87,0.352-1.417
    	c0-0.628-0.153-1.161-0.457-1.598c-0.308-0.438-0.711-0.737-1.21-0.898c-0.498-0.162-1.221-0.243-2.165-0.243h-5.093v9.887H175.931z
    	"/>
    <path d="M187.523,8.246l1.072-3.548l1.073,3.548H187.523z M190.802,12.026h3.195l-3.677-9.887h-3.363l-3.696,9.887h3.116
    	l0.494-1.633h3.439L190.802,12.026z"/>
    <path d="M134.045,18.624h2.842l3.733,5.483v-5.483h2.886v9.887h-2.886l-3.712-5.454v5.454h-2.863V18.624L134.045,18.624z"/>
    <path d="M146.208,18.624h8.187v2.103h-5.122v1.588h4.764v2.013h-4.764v1.946h5.278v2.237h-8.343V18.624z"/>
    <path d="M155.605,18.624h3.191l2.234,7.116l2.19-7.116h3.099l-3.667,9.887h-3.311L155.605,18.624z"/>
    <path d="M170.501,24.731l1.075-3.548l1.072,3.548H170.501z M173.782,28.511h3.196l-3.677-9.887h-3.366l-3.696,9.887h3.118
    	l0.495-1.633h3.439L173.782,28.511z"/>
    <path d="M181.948,20.861c0.791,0,1.357,0.194,1.698,0.582c0.343,0.387,0.512,1.106,0.512,2.156c0,0.792-0.075,1.365-0.228,1.719
    	c-0.153,0.354-0.366,0.603-0.635,0.744s-0.725,0.212-1.363,0.212h-0.748v-5.413H181.948z M178.141,28.511h4.532
    	c0.543,0,1.148-0.09,1.817-0.269c0.49-0.131,0.948-0.393,1.374-0.787c0.427-0.392,0.758-0.88,1-1.463
    	c0.239-0.582,0.359-1.402,0.359-2.458c0-0.674-0.081-1.313-0.243-1.916c-0.161-0.603-0.421-1.13-0.781-1.584
    	c-0.357-0.455-0.812-0.803-1.361-1.046c-0.551-0.243-1.273-0.364-2.165-0.364h-4.532V28.511z"/>
    <path d="M192.206,24.731l1.073-3.548l1.072,3.548H192.206z M195.487,28.511h3.196l-3.68-9.887h-3.362l-3.696,9.887h3.116
    	l0.495-1.633h3.439L195.487,28.511z"/>
    <path d="M140.599,40.97l2.684,0.81c-0.179,0.749-0.463,1.375-0.851,1.876c-0.386,0.502-0.865,0.881-1.439,1.138
    	c-0.572,0.254-1.303,0.383-2.188,0.383c-1.074,0-1.953-0.157-2.635-0.471c-0.682-0.312-1.27-0.862-1.765-1.65
    	c-0.492-0.789-0.741-1.797-0.741-3.025c0-1.639,0.436-2.898,1.307-3.779c0.87-0.879,2.101-1.32,3.694-1.32
    	c1.246,0,2.226,0.252,2.938,0.755c0.713,0.501,1.244,1.274,1.589,2.314l-2.705,0.6c-0.095-0.301-0.192-0.521-0.298-0.66
    	c-0.169-0.233-0.38-0.412-0.625-0.537c-0.247-0.127-0.523-0.189-0.829-0.189c-0.689,0-1.22,0.279-1.59,0.841
    	c-0.276,0.415-0.417,1.069-0.417,1.959c0,1.104,0.166,1.859,0.497,2.268c0.333,0.409,0.801,0.613,1.402,0.613
    	c0.582,0,1.022-0.163,1.32-0.492C140.246,42.073,140.464,41.595,140.599,40.97z"/>
    <path d="M148.12,37.892c0.376-0.438,0.872-0.657,1.493-0.657c0.647,0,1.159,0.215,1.537,0.648c0.378,0.431,0.566,1.115,0.566,2.052
    	c0,1.113-0.181,1.885-0.543,2.313c-0.362,0.431-0.875,0.645-1.535,0.645c-0.641,0-1.148-0.218-1.522-0.658
    	c-0.372-0.438-0.561-1.159-0.561-2.164C147.556,39.058,147.744,38.332,148.12,37.892z M145.195,42.952
    	c0.454,0.771,1.048,1.334,1.778,1.689s1.653,0.535,2.77,0.535c1.097,0,2.012-0.207,2.748-0.619c0.736-0.411,1.297-0.989,1.687-1.729
    	c0.39-0.741,0.582-1.69,0.582-2.85c0-1.594-0.445-2.834-1.336-3.719c-0.89-0.886-2.157-1.329-3.804-1.329
    	c-1.604,0-2.856,0.45-3.756,1.353c-0.898,0.899-1.351,2.16-1.351,3.776C144.513,41.217,144.741,42.182,145.195,42.952z"/>
    <path d="M159.363,37.101h1.346c0.561,0,0.94,0.085,1.145,0.256c0.203,0.171,0.304,0.417,0.304,0.737
    	c0,0.216-0.063,0.407-0.192,0.573s-0.294,0.271-0.497,0.311c-0.402,0.091-0.674,0.136-0.812,0.136h-1.293L159.363,37.101
    	L159.363,37.101z M159.363,44.997v-4.026h0.271c0.28,0,0.531,0.077,0.752,0.229c0.161,0.118,0.349,0.373,0.557,0.765l1.642,3.032
    	h3.443l-1.498-2.862c-0.069-0.146-0.214-0.353-0.426-0.621c-0.211-0.268-0.374-0.441-0.485-0.523
    	c-0.165-0.123-0.429-0.245-0.791-0.368c0.454-0.104,0.814-0.232,1.075-0.391c0.411-0.246,0.734-0.568,0.968-0.966
    	c0.236-0.396,0.353-0.868,0.353-1.417c0-0.628-0.151-1.16-0.459-1.598c-0.304-0.438-0.709-0.738-1.208-0.898
    	c-0.498-0.162-1.221-0.243-2.165-0.243h-5.093v9.888L159.363,44.997L159.363,44.997z"/>
    <path d="M170.742,37.123h0.871c0.57,0,0.96,0.108,1.168,0.324c0.206,0.218,0.31,0.481,0.31,0.792c0,0.322-0.119,0.584-0.358,0.79
    	c-0.239,0.205-0.652,0.31-1.242,0.31h-0.748L170.742,37.123L170.742,37.123z M167.677,44.997h3.065v-3.669h1.673
    	c1.233,0,2.148-0.28,2.75-0.842c0.6-0.563,0.899-1.343,0.899-2.342c0-0.971-0.274-1.719-0.823-2.246
    	c-0.552-0.525-1.381-0.789-2.487-0.789h-5.077V44.997L167.677,44.997z"/>
    <path d="M181.008,37.892c0.374-0.438,0.872-0.657,1.491-0.657c0.646,0,1.161,0.215,1.539,0.648c0.378,0.431,0.566,1.115,0.566,2.052
    	c0,1.113-0.181,1.885-0.543,2.313c-0.362,0.431-0.873,0.645-1.533,0.645c-0.645,0-1.15-0.218-1.524-0.658
    	c-0.374-0.438-0.56-1.159-0.56-2.164C180.445,39.058,180.632,38.332,181.008,37.892z M178.082,42.952
    	c0.454,0.771,1.046,1.334,1.778,1.689c0.73,0.355,1.651,0.535,2.768,0.535c1.099,0,2.014-0.207,2.748-0.619
    	c0.736-0.411,1.299-0.989,1.687-1.729c0.39-0.741,0.584-1.69,0.584-2.85c0-1.594-0.445-2.834-1.336-3.719
    	c-0.89-0.886-2.157-1.329-3.804-1.329c-1.604,0-2.856,0.45-3.757,1.353c-0.899,0.899-1.348,2.16-1.348,3.776
    	C177.403,41.217,177.629,42.182,178.082,42.952z"/>
    <path d="M192.249,37.101h1.348c0.559,0,0.942,0.085,1.145,0.256c0.203,0.171,0.304,0.417,0.304,0.737
    	c0,0.216-0.063,0.407-0.192,0.573c-0.129,0.166-0.294,0.271-0.499,0.311c-0.4,0.091-0.672,0.136-0.812,0.136h-1.293L192.249,37.101
    	L192.249,37.101z M192.249,44.997v-4.026h0.271c0.282,0,0.533,0.077,0.754,0.229c0.163,0.118,0.349,0.373,0.557,0.765l1.64,3.032
    	h3.445l-1.498-2.862c-0.071-0.146-0.214-0.353-0.426-0.621c-0.213-0.268-0.374-0.441-0.485-0.523
    	c-0.167-0.123-0.431-0.245-0.793-0.368c0.456-0.104,0.814-0.232,1.075-0.391c0.413-0.246,0.734-0.568,0.97-0.966
    	c0.234-0.396,0.353-0.868,0.353-1.417c0-0.628-0.153-1.16-0.459-1.598s-0.709-0.738-1.208-0.898
    	c-0.498-0.162-1.221-0.243-2.163-0.243h-5.095v9.888L192.249,44.997L192.249,44.997z"/>
    <path d="M203.84,41.216l1.075-3.549l1.071,3.549H203.84z M207.122,44.997h3.195l-3.679-9.888h-3.363l-3.694,9.888h3.116l0.492-1.634
    	h3.439L207.122,44.997z"/>
    <path d="M210.345,35.109h9.263v2.438h-3.11v7.449h-3.042v-7.449h-3.11L210.345,35.109L210.345,35.109z"/>
    <path d="M221.829,35.109h3.065v9.888h-3.065V35.109z"/>
    <path d="M230.981,37.892c0.376-0.438,0.875-0.657,1.494-0.657c0.646,0,1.16,0.215,1.536,0.648c0.378,0.431,0.567,1.115,0.567,2.052
    	c0,1.113-0.18,1.885-0.544,2.313c-0.362,0.431-0.872,0.645-1.532,0.645c-0.643,0-1.151-0.218-1.523-0.658
    	c-0.374-0.438-0.561-1.159-0.561-2.164C230.418,39.058,230.607,38.332,230.981,37.892z M228.058,42.952
    	c0.454,0.771,1.046,1.334,1.776,1.689c0.732,0.355,1.655,0.535,2.77,0.535c1.096,0,2.014-0.207,2.747-0.619
    	c0.736-0.411,1.298-0.989,1.687-1.729c0.39-0.741,0.585-1.69,0.585-2.85c0-1.594-0.446-2.834-1.336-3.719
    	c-0.891-0.886-2.16-1.329-3.804-1.329c-1.606,0-2.859,0.45-3.757,1.353c-0.899,0.899-1.35,2.16-1.35,3.776
    	C227.376,41.217,227.604,42.182,228.058,42.952z"/>
    <path d="M239.135,35.109h2.844l3.733,5.483v-5.483h2.886v9.888h-2.886L242,39.543v5.454h-2.865V35.109L239.135,35.109z"/>
</svg>
