<?xml version="1.0" encoding="utf-8"?>
<!-- Generator: Adobe Illustrator 13.0.0, SVG Export Plug-In . SVG Version: 6.00 Build 14948)  -->
<!DOCTYPE svg PUBLIC "-//W3C//DTD SVG 1.1//EN" "http://www.w3.org/Graphics/SVG/1.1/DTD/svg11.dtd">
<svg version="1.1" id="Layer_1" xmlns="http://www.w3.org/2000/svg" xmlns:xlink="http://www.w3.org/1999/xlink" x="0px" y="0px"
	 width="65.16px" height="63.792px" viewBox="0 0 65.16 63.792" enable-background="new 0 0 65.16 63.792" xml:space="preserve">
<g>
	<rect x="13.68" fill-rule="evenodd" clip-rule="evenodd" fill="#FFFFFF" width="37.728" height="37.8"/>
	<g>
		<polygon fill-rule="evenodd" clip-rule="evenodd" fill="#B01F23" points="51.408,0 29.52,0 41.76,4.032 10.584,40.824 
			47.52,9.648 51.408,22.032 		"/>
		<path fill-rule="evenodd" clip-rule="evenodd" fill="#B01F23" d="M4.392,56.016c-2.52,0-4.392-1.44-4.392-3.96v-6.984h1.656v6.768
			c0,1.656,0.864,2.736,2.736,2.736S7.2,53.496,7.2,51.84v-6.768h1.512v6.984C8.712,54.576,6.912,56.016,4.392,56.016z"/>
		<polygon fill-rule="evenodd" clip-rule="evenodd" fill="#B01F23" points="16.704,55.8 12.6,50.832 12.528,50.832 12.528,55.8 
			10.944,55.8 10.944,45.072 12.528,45.072 12.528,50.184 12.6,50.184 16.776,45.072 18.648,45.072 14.184,50.328 18.792,55.8 		"/>
		<polygon fill-rule="evenodd" clip-rule="evenodd" fill="#B01F23" points="29.304,37.872 39.312,22.248 23.616,37.872 		"/>
		<polygon fill-rule="evenodd" clip-rule="evenodd" fill="#B01F23" points="13.608,13.104 34.92,5.328 13.608,9.36 		"/>
		<polygon fill-rule="evenodd" clip-rule="evenodd" fill="#00537F" points="49.68,37.872 46.152,16.488 35.568,37.872 		"/>
		<polygon fill-rule="evenodd" clip-rule="evenodd" fill="#00537F" points="13.608,4.968 28.08,3.672 13.608,1.8 		"/>
		<polygon fill-rule="evenodd" clip-rule="evenodd" fill="#00537F" points="13.608,28.368 30.96,10.08 13.608,18.288 		"/>
		<path fill-rule="evenodd" clip-rule="evenodd" d="M26.496,55.872c-1.152,0-2.16-0.288-2.664-0.648l-0.216-1.728
			c0.792,0.576,1.872,1.008,2.952,1.008c1.224,0,1.944-0.648,1.944-1.584c0-1.008-0.504-1.512-1.8-1.944
			c-1.872-0.576-2.88-1.584-2.88-3.096c0-1.512,1.08-2.88,3.384-2.88c1.008,0,1.872,0.36,2.304,0.576l-0.36,1.368
			c-0.36-0.216-1.152-0.576-2.016-0.576c-1.08,0-1.728,0.648-1.728,1.368c0,0.792,0.576,1.296,1.656,1.656
			c1.872,0.576,3.096,1.44,3.096,3.384C30.168,54.648,28.872,55.872,26.496,55.872z"/>
		<g>
			<path fill-rule="evenodd" clip-rule="evenodd" d="M35.28,49.752c0.936-0.072,1.656-0.576,1.656-1.584
				c0-1.08-0.72-1.584-1.656-1.656v-1.44h0.072c1.512,0,3.24,1.008,3.24,3.024c0,2.016-1.728,3.024-3.24,3.024H35.28V49.752z
				 M35.064,46.512h-1.44v3.24h1.44c0.072,0,0.144,0,0.216,0v1.368h-1.656v4.68H32.04V45.072h3.24v1.44
				C35.208,46.512,35.136,46.512,35.064,46.512L35.064,46.512z"/>
		</g>
		<path fill-rule="evenodd" clip-rule="evenodd" d="M43.2,49.104c-0.144-0.288-0.288-0.792-0.432-1.296v-2.88h0.288L47.664,55.8
			h-1.656l-1.152-2.736h-2.088v-1.296h1.512L43.2,49.104z M42.768,47.808c-0.144,0.504-0.288,1.008-0.504,1.296l-1.008,2.664h1.512
			v1.296H40.68L39.528,55.8h-1.584l4.536-10.872h0.288V47.808z"/>
		<path fill-rule="evenodd" clip-rule="evenodd" d="M56.52,47.16c-0.576-0.36-1.584-0.72-2.664-0.72
			c-2.088,0-4.248,1.368-4.248,4.032c0,2.736,2.16,4.032,4.248,4.032c1.224,0,2.088-0.216,2.736-0.576l-0.144,1.44
			c-0.72,0.36-1.44,0.504-2.808,0.504c-2.664,0-5.688-1.8-5.688-5.4C47.952,46.8,51.048,45,53.64,45c1.44,0,2.448,0.36,3.168,0.72
			L56.52,47.16z"/>
		<polygon fill-rule="evenodd" clip-rule="evenodd" points="58.752,55.8 58.752,45.072 64.512,45.072 64.512,46.512 60.408,46.512 
			60.408,49.752 63.864,49.752 63.864,51.12 60.408,51.12 60.408,54.432 65.16,54.432 65.16,55.8 		"/>
		<path fill-rule="evenodd" clip-rule="evenodd" d="M35.928,60.336c-0.072-0.216-0.144-0.432-0.216-0.72v-1.44h0.144l2.304,5.544
			h-0.792l-0.576-1.44h-1.08v-0.648h0.792L35.928,60.336z M35.712,59.616c-0.072,0.288-0.144,0.504-0.216,0.72l-0.576,1.296h0.792
			v0.648h-1.08l-0.576,1.44h-0.792l2.304-5.544h0.144V59.616z"/>
		<path fill-rule="evenodd" clip-rule="evenodd" d="M41.328,63.792c-1.512,0-3.024-1.008-3.024-2.808
			c0-1.872,1.584-2.808,2.952-2.808c0.72,0,1.368,0.144,1.728,0.432l-0.144,0.72c-0.36-0.288-0.936-0.432-1.512-0.432
			c-1.008,0-2.16,0.72-2.16,2.088c0,1.44,1.08,2.088,2.16,2.088c0.504,0,0.936-0.072,1.152-0.288v-1.152h-1.224v-0.648h2.016v2.232
			C42.768,63.648,42.12,63.792,41.328,63.792z"/>
		<polygon fill-rule="evenodd" clip-rule="evenodd" points="44.496,63.72 44.496,58.248 47.376,58.248 47.376,58.968 45.288,58.968 
			45.288,60.624 47.088,60.624 47.088,61.344 45.288,61.344 45.288,63 47.664,63 47.664,63.72 		"/>
		<path fill-rule="evenodd" clip-rule="evenodd" d="M53.352,63.792l-2.52-2.736c-0.432-0.432-0.864-1.008-1.224-1.44h-0.072
			c0.072,0.504,0.072,0.936,0.072,1.368v2.736h-0.864v-5.472h0.576l2.304,2.592c0.36,0.36,0.864,0.864,1.152,1.296l0,0
			c0-0.432,0-0.936,0-1.296v-2.592h0.864v5.544H53.352z"/>
		<path fill-rule="evenodd" clip-rule="evenodd" d="M58.896,59.328c-0.288-0.216-0.792-0.36-1.368-0.36
			c-1.008,0-2.088,0.648-2.088,2.016c0,1.368,1.08,2.016,2.088,2.016c0.648,0,1.08-0.072,1.44-0.288l-0.072,0.792
			c-0.36,0.144-0.72,0.216-1.44,0.216c-1.368,0-2.88-0.936-2.88-2.736c0-1.872,1.584-2.736,2.88-2.736
			c0.72,0,1.224,0.144,1.584,0.288L58.896,59.328z"/>
		<path fill-rule="evenodd" clip-rule="evenodd" d="M62.424,61.2v2.52h-0.792V61.2l-2.088-2.952h0.936l1.08,1.584
			c0.144,0.216,0.36,0.504,0.504,0.72l0,0c0.144-0.216,0.36-0.576,0.504-0.72l1.08-1.584h0.864L62.424,61.2z"/>
	</g>
</g>
</svg>
