<?xml version="1.0" encoding="UTF-8" standalone="no"?>
<!-- Created with Inkscape (http://www.inkscape.org/) -->

<svg
   xmlns:dc="http://purl.org/dc/elements/1.1/"
   xmlns:cc="http://creativecommons.org/ns#"
   xmlns:rdf="http://www.w3.org/1999/02/22-rdf-syntax-ns#"
   xmlns:svg="http://www.w3.org/2000/svg"
   xmlns="http://www.w3.org/2000/svg"
   xmlns:sodipodi="http://sodipodi.sourceforge.net/DTD/sodipodi-0.dtd"
   xmlns:inkscape="http://www.inkscape.org/namespaces/inkscape"
   id="svg2"
   version="1.1"
   inkscape:version="0.47 r22583"
   width="123.75"
   height="67.5"
   xml:space="preserve"
   sodipodi:docname="ULA.ai"><metadata
     id="metadata8"><rdf:RDF><cc:Work
         rdf:about=""><dc:format>image/svg+xml</dc:format><dc:type
           rdf:resource="http://purl.org/dc/dcmitype/StillImage" /><dc:title></dc:title></cc:Work></rdf:RDF></metadata><defs
     id="defs6"><inkscape:perspective
       sodipodi:type="inkscape:persp3d"
       inkscape:vp_x="0 : 0.5 : 1"
       inkscape:vp_y="0 : 1000 : 0"
       inkscape:vp_z="1 : 0.5 : 1"
       inkscape:persp3d-origin="0.5 : 0.33333333 : 1"
       id="perspective10" /><clipPath
       clipPathUnits="userSpaceOnUse"
       id="clipPath18"><path
         d="M 0,54 99,54 99,0 0,0 0,54 z"
         id="path20" /></clipPath></defs><sodipodi:namedview
     pagecolor="#ffffff"
     bordercolor="#666666"
     borderopacity="1"
     objecttolerance="10"
     gridtolerance="10"
     guidetolerance="10"
     inkscape:pageopacity="0"
     inkscape:pageshadow="2"
     inkscape:window-width="1280"
     inkscape:window-height="1002"
     id="namedview4"
     showgrid="false"
     inkscape:zoom="3.4962963"
     inkscape:cx="61.875"
     inkscape:cy="33.75"
     inkscape:window-x="-8"
     inkscape:window-y="-8"
     inkscape:window-maximized="1"
     inkscape:current-layer="g12" /><g
     id="g12"
     inkscape:groupmode="layer"
     inkscape:label="ULA"
     transform="matrix(1.25,0,0,-1.25,0,67.5)"><g
       id="g14"><g
         id="g16"
         clip-path="url(#clipPath18)"><g
           id="g22"
           transform="translate(55.8867,30.8789)"><path
             d="m 0,0 -11.742,0 0,12.659 -5.224,0 0,-17.036 L 0,-4.377 0,0 z m 17.231,0.004 0.742,-1.369 1.624,-3.012 5.811,0 -4.917,8.946 C 19.686,1.754 20.137,0.004 20.137,0.004 l -2.906,0 z m -4.682,8.65 2.096,-3.871 c 0.331,0.263 0.676,0.539 1.037,0.83 1.04,0.836 2.013,1.647 2.908,2.413 l -2.547,4.633 -6.8,0 -9.224,-17.036 5.835,0 6.695,13.031 z m -45.693,-13.218 7.484,0 c 4.8,0 6.989,2.022 6.989,6.258 l 0,10.965 -5.225,0 0,-9.836 c 0,-2.164 -0.776,-3.011 -2.917,-3.011 l -5.177,0 c -2.141,0 -2.918,0.847 -2.918,3.011 l 0,9.836 -5.223,0 0,-10.965 c 0,-4.236 2.188,-6.258 6.987,-6.258"
             style="fill:#254893;fill-opacity:1;fill-rule:nonzero;stroke:none"
             id="path24" /></g><g
           id="g26"
           transform="translate(79.126,43.8184)"><path
             d="m 0,0 c 0.104,0.039 0.216,0.063 0.334,0.063 0.142,0 0.274,-0.035 0.395,-0.089 -1.26,-1.225 -4.289,-4.085 -8.287,-7.301 -5.692,-4.579 -7.513,-5.61 -7.513,-5.61 l 4.796,0 c 0,0 2.123,2.868 5.824,6.744 1.414,1.482 2.524,2.721 3.385,3.725 -0.685,-0.95 -1.492,-2.135 -2.394,-3.572 -2.035,-3.244 -3.586,-6.897 -3.586,-6.897 l 3.942,0 c 0,0 -0.573,2.209 0.712,5.661 1.502,4.036 1.977,4.76 3.33,7.122 0.157,-0.129 0.272,-0.305 0.323,-0.508 l 0.555,1.844"
             style="fill:#fbc018;fill-opacity:1;fill-rule:nonzero;stroke:none"
             id="path28" /></g><g
           id="g102"
           transform="translate(48.3877,21.5459)"><path
             d="M 0,0 C 15.505,0 29.631,-1.74 40.26,-4.593 32.146,0.375 17.265,3.705 0.246,3.705 -16.51,3.705 -31.195,0.478 -39.388,-4.365 -28.864,-1.647 -15.085,0 0,0"
             style="fill:#5b90d3;fill-opacity:1;fill-rule:nonzero;stroke:none"
             id="path104" /></g></g></g></g></svg>
