<?xml version="1.0" encoding="UTF-8" standalone="no"?>
<!-- Created with Inkscape (http://www.inkscape.org/) -->

<svg
   xmlns:dc="http://purl.org/dc/elements/1.1/"
   xmlns:cc="http://creativecommons.org/ns#"
   xmlns:rdf="http://www.w3.org/1999/02/22-rdf-syntax-ns#"
   xmlns:svg="http://www.w3.org/2000/svg"
   xmlns="http://www.w3.org/2000/svg"
   xmlns:sodipodi="http://sodipodi.sourceforge.net/DTD/sodipodi-0.dtd"
   xmlns:inkscape="http://www.inkscape.org/namespaces/inkscape"
   id="svg2"
   version="1.1"
   inkscape:version="0.47 r22583"
   width="123.75"
   height="67.5"
   xml:space="preserve"
   sodipodi:docname="ULA.ai"><metadata
     id="metadata8"><rdf:RDF><cc:Work
         rdf:about=""><dc:format>image/svg+xml</dc:format><dc:type
           rdf:resource="http://purl.org/dc/dcmitype/StillImage" /><dc:title></dc:title></cc:Work></rdf:RDF></metadata><defs
     id="defs6"><inkscape:perspective
       sodipodi:type="inkscape:persp3d"
       inkscape:vp_x="0 : 0.5 : 1"
       inkscape:vp_y="0 : 1000 : 0"
       inkscape:vp_z="1 : 0.5 : 1"
       inkscape:persp3d-origin="0.5 : 0.33333333 : 1"
       id="perspective10" /><clipPath
       clipPathUnits="userSpaceOnUse"
       id="clipPath18"><path
         d="M 0,54 99,54 99,0 0,0 0,54 z"
         id="path20" /></clipPath></defs><sodipodi:namedview
     pagecolor="#ffffff"
     bordercolor="#666666"
     borderopacity="1"
     objecttolerance="10"
     gridtolerance="10"
     guidetolerance="10"
     inkscape:pageopacity="0"
     inkscape:pageshadow="2"
     inkscape:window-width="1280"
     inkscape:window-height="1002"
     id="namedview4"
     showgrid="false"
     inkscape:zoom="3.4962963"
     inkscape:cx="61.875"
     inkscape:cy="33.75"
     inkscape:window-x="-8"
     inkscape:window-y="-8"
     inkscape:window-maximized="1"
     inkscape:current-layer="g12" /><g
     id="g12"
     inkscape:groupmode="layer"
     inkscape:label="ULA"
     transform="matrix(1.25,0,0,-1.25,0,67.5)"><g
       id="g14"><g
         id="g16"
         clip-path="url(#clipPath18)"><g
           id="g22"
           transform="translate(55.8867,30.8789)"><path
             d="m 0,0 -11.742,0 0,12.659 -5.224,0 0,-17.036 L 0,-4.377 0,0 z m 17.231,0.004 0.742,-1.369 1.624,-3.012 5.811,0 -4.917,8.946 C 19.686,1.754 20.137,0.004 20.137,0.004 l -2.906,0 z m -4.682,8.65 2.096,-3.871 c 0.331,0.263 0.676,0.539 1.037,0.83 1.04,0.836 2.013,1.647 2.908,2.413 l -2.547,4.633 -6.8,0 -9.224,-17.036 5.835,0 6.695,13.031 z m -45.693,-13.218 7.484,0 c 4.8,0 6.989,2.022 6.989,6.258 l 0,10.965 -5.225,0 0,-9.836 c 0,-2.164 -0.776,-3.011 -2.917,-3.011 l -5.177,0 c -2.141,0 -2.918,0.847 -2.918,3.011 l 0,9.836 -5.223,0 0,-10.965 c 0,-4.236 2.188,-6.258 6.987,-6.258"
             style="fill:#254893;fill-opacity:1;fill-rule:nonzero;stroke:none"
             id="path24" /></g><g
           id="g26"
           transform="translate(79.126,43.8184)"><path
             d="m 0,0 c 0.104,0.039 0.216,0.063 0.334,0.063 0.142,0 0.274,-0.035 0.395,-0.089 -1.26,-1.225 -4.289,-4.085 -8.287,-7.301 -5.692,-4.579 -7.513,-5.61 -7.513,-5.61 l 4.796,0 c 0,0 2.123,2.868 5.824,6.744 1.414,1.482 2.524,2.721 3.385,3.725 -0.685,-0.95 -1.492,-2.135 -2.394,-3.572 -2.035,-3.244 -3.586,-6.897 -3.586,-6.897 l 3.942,0 c 0,0 -0.573,2.209 0.712,5.661 1.502,4.036 1.977,4.76 3.33,7.122 0.157,-0.129 0.272,-0.305 0.323,-0.508 l 0.555,1.844"
             style="fill:#fbc018;fill-opacity:1;fill-rule:nonzero;stroke:none"
             id="path28" /></g><g
           id="g30"
           transform="translate(10.4063,16.0762)"><path
             d="m 0,0 0,-4.576 c 0,-0.653 0.156,-1.139 0.772,-1.139 0.616,0 0.772,0.486 0.772,1.139 l 0,4.576 1.323,0 0,-4.576 c 0,-1.672 -1.019,-2.113 -2.095,-2.113 -1.075,0 -2.094,0.357 -2.094,2.113 l 0,4.576"
             style="fill:#11100e;fill-opacity:1;fill-rule:nonzero;stroke:none"
             id="path32" /></g><g
           id="g34"
           transform="translate(13.9355,14.458)"><path
             d="m 0,0 1.213,0 0,-0.578 0.018,0 c 0.267,0.487 0.726,0.708 1.259,0.708 0.79,0 1.259,-0.432 1.259,-1.406 l 0,-3.666 -1.269,0 0,3.408 c 0,0.496 -0.165,0.69 -0.541,0.69 -0.432,0 -0.671,-0.268 -0.671,-0.819 l 0,-3.279 -1.268,0"
             style="fill:#11100e;fill-opacity:1;fill-rule:nonzero;stroke:none"
             id="path36" /></g><path
           d="m 18.438,14.458 1.269,0 0,-4.943 -1.269,0 0,4.943 z m 0,1.691 1.269,0 0,-1.085 -1.269,0 0,1.085 z"
           style="fill:#11100e;fill-opacity:1;fill-rule:nonzero;stroke:none"
           id="path38" /><g
           id="g40"
           transform="translate(20.7354,15.874)"><path
             d="m 0,0 1.269,0 0,-1.415 0.734,0 0,-0.864 -0.734,0 0,-2.673 c 0,-0.387 0.082,-0.543 0.449,-0.543 0.101,0 0.202,0.009 0.285,0.018 l 0,-0.881 C 1.728,-6.386 1.47,-6.413 1.176,-6.413 0.185,-6.413 0,-6.11 0,-5.109 l 0,2.83 -0.643,0 0,0.864 0.643,0"
             style="fill:#11100e;fill-opacity:1;fill-rule:nonzero;stroke:none"
             id="path42" /></g><g
           id="g44"
           transform="translate(25.4219,12.5469)"><path
             d="m 0,0 c -0.027,0.753 -0.119,1.175 -0.644,1.175 -0.505,0 -0.652,-0.523 -0.652,-0.982 L -1.296,0 0,0 z m -1.296,-0.754 0,-0.394 c 0,-0.579 0.156,-1.15 0.625,-1.15 0.423,0 0.598,0.322 0.671,0.928 l 1.139,0 c -0.046,-1.148 -0.597,-1.791 -1.791,-1.791 -1.838,0 -1.912,1.415 -1.912,2.647 0,1.322 0.257,2.554 1.966,2.554 1.48,0 1.811,-0.993 1.811,-2.509 l 0,-0.285"
             style="fill:#11100e;fill-opacity:1;fill-rule:nonzero;stroke:none"
             id="path46" /></g><g
           id="g48"
           transform="translate(28.9688,10.3613)"><path
             d="M 0,0 C 0.56,0 0.67,0.551 0.67,1.626 0.67,2.7 0.56,3.253 0,3.253 -0.552,3.253 -0.662,2.7 -0.662,1.626 -0.662,0.551 -0.552,0 0,0 m 0.726,-0.323 -0.019,0 c -0.276,-0.458 -0.625,-0.652 -1.121,-0.652 -1.038,0 -1.517,0.763 -1.517,2.601 0,1.838 0.479,2.601 1.517,2.601 0.477,0 0.8,-0.195 1.065,-0.588 l 0.019,0 0,2.076 1.268,0 0,-6.561 -1.212,0"
             style="fill:#11100e;fill-opacity:1;fill-rule:nonzero;stroke:none"
             id="path50" /></g><g
           id="g52"
           transform="translate(33.7178,9.5146)"><path
             d="m 0,0 0,6.561 1.324,0 0,-5.478 2.342,0 0,-1.083"
             style="fill:#11100e;fill-opacity:1;fill-rule:nonzero;stroke:none"
             id="path54" /></g><g
           id="g56"
           transform="translate(40.1045,11.9873)"><path
             d="m 0,0 c -0.175,-0.129 -0.386,-0.212 -0.542,-0.249 -0.515,-0.11 -0.717,-0.358 -0.717,-0.799 0,-0.378 0.138,-0.689 0.478,-0.689 0.341,0 0.781,0.219 0.781,0.762 L 0,0 z m -2.315,0.955 0,0.119 c 0,1.14 0.78,1.526 1.735,1.526 1.508,0 1.793,-0.625 1.793,-1.516 l 0,-2.602 c 0,-0.459 0.027,-0.67 0.156,-0.955 l -1.213,0 C 0.073,-2.316 0.036,-2.123 0,-1.957 l -0.019,0 c -0.294,-0.516 -0.652,-0.645 -1.258,-0.645 -0.883,0 -1.195,0.754 -1.195,1.415 0,0.928 0.377,1.306 1.25,1.544 L -0.506,0.55 C -0.129,0.651 0,0.799 0,1.129 c 0,0.378 -0.166,0.606 -0.588,0.606 -0.386,0 -0.588,-0.256 -0.588,-0.642 l 0,-0.138"
             style="fill:#11100e;fill-opacity:1;fill-rule:nonzero;stroke:none"
             id="path58" /></g><g
           id="g60"
           transform="translate(44.6162,10.0938)"><path
             d="m 0,0 -0.02,0 c -0.264,-0.486 -0.725,-0.708 -1.258,-0.708 -0.789,0 -1.259,0.433 -1.259,1.406 l 0,3.666 1.267,0 0,-3.409 c 0,-0.495 0.166,-0.687 0.543,-0.687 0.431,0 0.672,0.265 0.672,0.816 l 0,3.28 1.267,0 0,-4.943 -1.212,0"
             style="fill:#11100e;fill-opacity:1;fill-rule:nonzero;stroke:none"
             id="path62" /></g><g
           id="g64"
           transform="translate(46.5361,14.458)"><path
             d="m 0,0 1.214,0 0,-0.578 0.017,0 c 0.267,0.487 0.726,0.708 1.26,0.708 0.789,0 1.258,-0.432 1.258,-1.406 l 0,-3.666 -1.268,0 0,3.408 c 0,0.496 -0.166,0.69 -0.543,0.69 -0.43,0 -0.669,-0.268 -0.669,-0.819 l 0,-3.279 -1.269,0"
             style="fill:#11100e;fill-opacity:1;fill-rule:nonzero;stroke:none"
             id="path66" /></g><g
           id="g68"
           transform="translate(53.373,12.6758)"><path
             d="m 0,0 c 0,0.479 -0.093,0.992 -0.57,0.992 -0.624,0 -0.726,-0.551 -0.726,-1.691 0,-1.221 0.11,-1.727 0.68,-1.727 0.423,0 0.616,0.36 0.616,1.158 l 1.213,0 c 0,-1.295 -0.542,-2.022 -1.885,-2.022 -1.266,0 -1.891,0.616 -1.891,2.602 0,2.029 0.835,2.599 2.001,2.599 1.167,0 1.775,-0.744 1.775,-1.911"
             style="fill:#11100e;fill-opacity:1;fill-rule:nonzero;stroke:none"
             id="path70" /></g><g
           id="g72"
           transform="translate(55.1084,16.0762)"><path
             d="m 0,0 1.269,0 0,-2.122 0.018,0 c 0.238,0.422 0.67,0.634 1.203,0.634 0.791,0 1.259,-0.432 1.259,-1.407 l 0,-3.666 -1.268,0 0,3.409 c 0,0.497 -0.166,0.69 -0.542,0.69 -0.432,0 -0.67,-0.267 -0.67,-0.819 l 0,-3.28 -1.269,0"
             style="fill:#11100e;fill-opacity:1;fill-rule:nonzero;stroke:none"
             id="path74" /></g><g
           id="g76"
           transform="translate(63.1211,11.9873)"><path
             d="M 0,0 1.286,0 0.652,2.948 0.635,2.948 0,0 z m -0.175,4.089 1.637,0 1.736,-6.562 -1.379,0 -0.302,1.388 -1.746,0 -0.303,-1.388 -1.378,0"
             style="fill:#11100e;fill-opacity:1;fill-rule:nonzero;stroke:none"
             id="path78" /></g><path
           d="m 66.649,9.515 1.269,0 0,6.561 -1.269,0 0,-6.561 z"
           style="fill:#11100e;fill-opacity:1;fill-rule:nonzero;stroke:none"
           id="path80" /><path
           d="m 68.718,9.515 1.268,0 0,6.561 -1.268,0 0,-6.561 z"
           style="fill:#11100e;fill-opacity:1;fill-rule:nonzero;stroke:none"
           id="path82" /><path
           d="m 70.784,14.458 1.269,0 0,-4.943 -1.269,0 0,4.943 z m 0,1.691 1.269,0 0,-1.085 -1.269,0 0,1.085 z"
           style="fill:#11100e;fill-opacity:1;fill-rule:nonzero;stroke:none"
           id="path84" /><g
           id="g86"
           transform="translate(75.1113,11.9873)"><path
             d="m 0,0 c -0.175,-0.129 -0.386,-0.212 -0.542,-0.249 -0.515,-0.11 -0.717,-0.358 -0.717,-0.799 0,-0.378 0.138,-0.689 0.478,-0.689 0.341,0 0.781,0.219 0.781,0.762 L 0,0 z m -2.314,0.955 0,0.119 c 0,1.14 0.779,1.526 1.735,1.526 1.507,0 1.792,-0.625 1.792,-1.516 l 0,-2.602 c 0,-0.459 0.028,-0.67 0.156,-0.955 l -1.213,0 C 0.074,-2.316 0.036,-2.123 0,-1.957 l -0.019,0 c -0.294,-0.516 -0.652,-0.645 -1.257,-0.645 -0.883,0 -1.196,0.754 -1.196,1.415 0,0.928 0.377,1.306 1.25,1.544 L -0.505,0.55 C -0.129,0.651 0,0.799 0,1.129 c 0,0.378 -0.165,0.606 -0.588,0.606 -0.386,0 -0.589,-0.256 -0.589,-0.642 l 0,-0.138"
             style="fill:#11100e;fill-opacity:1;fill-rule:nonzero;stroke:none"
             id="path88" /></g><g
           id="g90"
           transform="translate(77.0879,14.458)"><path
             d="m 0,0 1.213,0 0,-0.578 0.018,0 c 0.267,0.487 0.726,0.708 1.258,0.708 0.791,0 1.26,-0.432 1.26,-1.406 l 0,-3.666 -1.269,0 0,3.408 c 0,0.496 -0.166,0.69 -0.542,0.69 -0.431,0 -0.67,-0.268 -0.67,-0.819 l 0,-3.279 -1.268,0"
             style="fill:#11100e;fill-opacity:1;fill-rule:nonzero;stroke:none"
             id="path92" /></g><g
           id="g94"
           transform="translate(83.9238,12.6758)"><path
             d="m 0,0 c 0,0.479 -0.092,0.992 -0.57,0.992 -0.625,0 -0.726,-0.551 -0.726,-1.691 0,-1.221 0.11,-1.727 0.68,-1.727 0.423,0 0.616,0.36 0.616,1.158 l 1.213,0 c 0,-1.295 -0.542,-2.022 -1.884,-2.022 -1.268,0 -1.893,0.616 -1.893,2.602 0,2.029 0.835,2.599 2.002,2.599 1.167,0 1.775,-0.744 1.775,-1.911"
             style="fill:#11100e;fill-opacity:1;fill-rule:nonzero;stroke:none"
             id="path96" /></g><g
           id="g98"
           transform="translate(88.0391,12.5469)"><path
             d="m 0,0 c -0.025,0.753 -0.119,1.175 -0.643,1.175 -0.505,0 -0.653,-0.523 -0.653,-0.982 L -1.296,0 0,0 z m -1.296,-0.754 0,-0.394 c 0,-0.579 0.158,-1.15 0.625,-1.15 0.423,0 0.599,0.322 0.671,0.928 l 1.14,0 c -0.045,-1.148 -0.597,-1.791 -1.792,-1.791 -1.837,0 -1.911,1.415 -1.911,2.647 0,1.322 0.257,2.554 1.965,2.554 1.482,0 1.812,-0.993 1.812,-2.509 l 0,-0.285"
             style="fill:#11100e;fill-opacity:1;fill-rule:nonzero;stroke:none"
             id="path100" /></g><g
           id="g102"
           transform="translate(48.3877,21.5459)"><path
             d="M 0,0 C 15.505,0 29.631,-1.74 40.26,-4.593 32.146,0.375 17.265,3.705 0.246,3.705 -16.51,3.705 -31.195,0.478 -39.388,-4.365 -28.864,-1.647 -15.085,0 0,0"
             style="fill:#5b90d3;fill-opacity:1;fill-rule:nonzero;stroke:none"
             id="path104" /></g></g></g></g></svg>
